# Rhino

g Cube_Octahedron_Compound
v -5 5 5
v -5 5 -5
v 5 5 5
v 5 5 -5
v 5 5 0
v 0 5 5
v -5 5 0
v 0 5 -5
v -5 -5 5
v -5 5 5
v 5 -5 5
v 5 5 5
v 0 5 5
v 5 0 5
v 0 -5 5
v -5 0 5
v 5 -5 -5
v 5 -5 5
v 5 5 -5
v 5 5 5
v 5 5 0
v 5 0 5
v 5 0 -5
v 5 -5 0
v -5 -5 -5
v -5 -5 5
v 5 -5 -5
v 5 -5 5
v 0 -5 5
v 5 -5 0
v 0 -5 -5
v -5 -5 0
v -5 -5 5
v -5 -5 -5
v -5 5 5
v -5 5 -5
v -5 5 0
v -5 0 5
v -5 -5 0
v -5 0 -5
v -5 5 -5
v -5 -5 -5
v 5 5 -5
v 5 -5 -5
v 0 5 -5
v 5 0 -5
v 0 -5 -5
v -5 0 -5
v 0 0 10
v 5 0 5
v 10 0 0
v 5 5 0
v 0 10 0
v 0 5 5
v 0 0 10
v 0 5 5
v 0 10 0
v -5 5 0
v -10 0 0
v -5 0 5
v 0 0 10
v -5 0 5
v -10 0 0
v -5 -5 0
v 0 -10 0
v 0 -5 5
v 10 0 0
v 5 0 5
v 0 0 10
v 0 -5 5
v 0 -10 0
v 5 -5 0
v 10 0 0
v 5 -5 0
v 0 -10 0
v 0 0 -10
v 5 0 -5
v 0 -5 -5
v 0 -10 0
v -5 -5 0
v -10 0 0
v 0 0 -10
v 0 -5 -5
v -5 0 -5
v -10 0 0
v -5 5 0
v 0 10 0
v 0 0 -10
v -5 0 -5
v 0 5 -5
v 0 10 0
v 5 5 0
v 10 0 0
v 5 0 -5
v 0 0 -10
v 0 5 -5
vt 0.2320508062839508 0.384584367275238
vt 0.2320508062839508 0.5703380107879639
vt 0.4178044199943543 0.384584367275238
vt 0.4178044199943543 0.5703380107879639
vt 0.4178044199943543 0.477461189031601
vt 0.3249276280403137 0.384584367275238
vt 0.2320508062839508 0.477461189031601
vt 0.3249276280403137 0.5703380107879639
vt 0 0.384584367275238
vt 0 0.5703380107879639
vt 0.1857536137104034 0.384584367275238
vt 0.1857536137104034 0.5703380107879639
vt 0.09287680685520172 0.5703380107879639
vt 0.1857536137104034 0.477461189031601
vt 0.09287680685520172 0.384584367275238
vt 0 0.477461189031601
vt 0.2320508062839508 0.6511943936347961
vt 0.2320508062839508 0.836948037147522
vt 0.4178044199943543 0.6511943936347961
vt 0.4178044199943543 0.836948037147522
vt 0.4178044199943543 0.7440711855888367
vt 0.3249276280403137 0.836948037147522
vt 0.3249276280403137 0.6511943936347961
vt 0.2320508062839508 0.7440711855888367
vt 0 0.6511943936347961
vt 0 0.836948037147522
vt 0.1857536137104034 0.6511943936347961
vt 0.1857536137104034 0.836948037147522
vt 0.09287680685520172 0.836948037147522
vt 0.1857536137104034 0.7440711855888367
vt 0.09287680685520172 0.6511943936347961
vt 0 0.7440711855888367
vt 0.7320508360862732 0
vt 0.7320508360862732 0.1842887699604034
vt 0.9178044199943543 0
vt 0.9178044199943543 0.1842887699604034
vt 0.9178044199943543 0.09214438498020172
vt 0.8249276280403137 0
vt 0.7320508360862732 0.09214438498020172
vt 0.8249276280403137 0.1842887699604034
vt 0.4641016125679016 0
vt 0.4641016125679016 0.1842887699604034
vt 0.6498552560806274 0
vt 0.6498552560806274 0.1842887699604034
vt 0.5569784045219421 0
vt 0.6498552560806274 0.09214438498020172
vt 0.5569784045219421 0.1842887699604034
vt 0.4641016125679016 0.09214438498020172
vt 0.9618266224861145 0.1883662045001984
vt 0.9618266224861145 0.3189958035945892
vt 0.9618266224861145 0.4496253728866577
vt 0.8480762243270874 0.3843106031417847
vt 0.7343258261680603 0.3189958035945892
vt 0.8480762243270874 0.2536810040473938
vt 0.6938773989677429 0.1883662045001984
vt 0.6938773989677429 0.3189958035945892
vt 0.6938773989677429 0.4496253728866577
vt 0.5801270008087158 0.3843106031417847
vt 0.4663766324520111 0.3189958035945892
vt 0.5801270008087158 0.2536810040473938
vt 0.4667142033576965 0.6880142688751221
vt 0.5973438024520874 0.6880142688751221
vt 0.7279733419418335 0.6880142688751221
vt 0.6626585721969605 0.80104660987854
vt 0.5973438024520874 0.914078950881958
vt 0.5320289731025696 0.80104660987854
vt 0.5973438024520874 0.6820281147956848
vt 0.5320289731025696 0.5689957737922669
vt 0.4667142033576965 0.4559634625911713
vt 0.5973438024520874 0.4559634625911713
vt 0.7279733419418335 0.4559634625911713
vt 0.6626585721969605 0.5689957737922669
vt 0.9959225654602051 0.6880142688751221
vt 0.930607795715332 0.80104660987854
vt 0.8652929663658142 0.914078950881958
vt 0.7346634268760681 0.6880142688751221
vt 0.8652929663658142 0.6880142688751221
vt 0.7999781966209412 0.80104660987854
vt 0.9959225654602051 0.4559634625911713
vt 0.930607795715332 0.5689957737922669
vt 0.8652929663658142 0.6820281147956848
vt 0.7346634268760681 0.4559634625911713
vt 0.8652929663658142 0.4559634625911713
vt 0.7999781966209412 0.5689957737922669
vt 0.460376113653183 0.2653222382068634
vt 0.3473438024520874 0.1996484249830246
vt 0.2343114614486694 0.1339745968580246
vt 0.460376113653183 0.002626952948048711
vt 0.460376113653183 0.1339745968580246
vt 0.3473438024520874 0.06830077618360519
vt 0.2283253222703934 0.2653222382068634
vt 0.1152929812669754 0.1996484249830246
vt 0.002260653534904122 0.1339745968580246
vt 0.1152929812669754 0.06830077618360519
vt 0.2283253222703934 0.002626952948048711
vt 0.2283253222703934 0.1339745968580246
vn 0 1 0
vn 0 1 0
vn 0 1 0
vn 0 1 0
vn 0 1 0
vn 0 1 0
vn 0 1 0
vn 0 1 0
vn 0 0 1
vn 0 0 1
vn 0 0 1
vn 0 0 1
vn 0 0 1
vn 0 0 1
vn 0 0 1
vn 0 0 1
vn 1 0 0
vn 1 0 0
vn 1 0 0
vn 1 0 0
vn 1 0 0
vn 1 0 0
vn 1 0 0
vn 1 0 0
vn 0 -1 0
vn 0 -1 0
vn 0 -1 0
vn 0 -1 0
vn 0 -1 0
vn 0 -1 0
vn 0 -1 0
vn 0 -1 0
vn -1 0 0
vn -1 0 0
vn -1 0 0
vn -1 0 0
vn -1 0 0
vn -1 0 0
vn -1 0 0
vn -1 0 0
vn 0 0 -1
vn 0 0 -1
vn 0 0 -1
vn 0 0 -1
vn 0 0 -1
vn 0 0 -1
vn 0 0 -1
vn 0 0 -1
vn 0.5773502588272095 0.5773502588272095 0.5773502588272095
vn 0.5773502588272095 0.5773502588272095 0.5773502588272095
vn 0.5773502588272095 0.5773502588272095 0.5773502588272095
vn 0.5773502588272095 0.5773502588272095 0.5773502588272095
vn 0.5773502588272095 0.5773502588272095 0.5773502588272095
vn 0.5773502588272095 0.5773502588272095 0.5773502588272095
vn -0.5773502588272095 0.5773502588272095 0.5773502588272095
vn -0.5773502588272095 0.5773502588272095 0.5773502588272095
vn -0.5773502588272095 0.5773502588272095 0.5773502588272095
vn -0.5773502588272095 0.5773502588272095 0.5773502588272095
vn -0.5773502588272095 0.5773502588272095 0.5773502588272095
vn -0.5773502588272095 0.5773502588272095 0.5773502588272095
vn -0.5773502588272095 -0.5773502588272095 0.5773502588272095
vn -0.5773502588272095 -0.5773502588272095 0.5773502588272095
vn -0.5773502588272095 -0.5773502588272095 0.5773502588272095
vn -0.5773502588272095 -0.5773502588272095 0.5773502588272095
vn -0.5773502588272095 -0.5773502588272095 0.5773502588272095
vn -0.5773502588272095 -0.5773502588272095 0.5773502588272095
vn 0.5773502588272095 -0.5773502588272095 0.5773502588272095
vn 0.5773502588272095 -0.5773502588272095 0.5773502588272095
vn 0.5773502588272095 -0.5773502588272095 0.5773502588272095
vn 0.5773502588272095 -0.5773502588272095 0.5773502588272095
vn 0.5773502588272095 -0.5773502588272095 0.5773502588272095
vn 0.5773502588272095 -0.5773502588272095 0.5773502588272095
vn 0.5773502588272095 -0.5773502588272095 -0.5773502588272095
vn 0.5773502588272095 -0.5773502588272095 -0.5773502588272095
vn 0.5773502588272095 -0.5773502588272095 -0.5773502588272095
vn 0.5773502588272095 -0.5773502588272095 -0.5773502588272095
vn 0.5773502588272095 -0.5773502588272095 -0.5773502588272095
vn 0.5773502588272095 -0.5773502588272095 -0.5773502588272095
vn -0.5773502588272095 -0.5773502588272095 -0.5773502588272095
vn -0.5773502588272095 -0.5773502588272095 -0.5773502588272095
vn -0.5773502588272095 -0.5773502588272095 -0.5773502588272095
vn -0.5773502588272095 -0.5773502588272095 -0.5773502588272095
vn -0.5773502588272095 -0.5773502588272095 -0.5773502588272095
vn -0.5773502588272095 -0.5773502588272095 -0.5773502588272095
vn -0.5773502588272095 0.5773502588272095 -0.5773502588272095
vn -0.5773502588272095 0.5773502588272095 -0.5773502588272095
vn -0.5773502588272095 0.5773502588272095 -0.5773502588272095
vn -0.5773502588272095 0.5773502588272095 -0.5773502588272095
vn -0.5773502588272095 0.5773502588272095 -0.5773502588272095
vn -0.5773502588272095 0.5773502588272095 -0.5773502588272095
vn 0.5773502588272095 0.5773502588272095 -0.5773502588272095
vn 0.5773502588272095 0.5773502588272095 -0.5773502588272095
vn 0.5773502588272095 0.5773502588272095 -0.5773502588272095
vn 0.5773502588272095 0.5773502588272095 -0.5773502588272095
vn 0.5773502588272095 0.5773502588272095 -0.5773502588272095
vn 0.5773502588272095 0.5773502588272095 -0.5773502588272095
f 7/7/7 1/1/1 6/6/6
f 7/7/7 8/8/8 2/2/2
f 5/5/5 7/7/7 6/6/6
f 7/7/7 5/5/5 8/8/8
f 5/5/5 4/4/4 8/8/8
f 3/3/3 5/5/5 6/6/6
f 16/16/16 9/9/9 15/15/15
f 16/16/16 13/13/13 10/10/10
f 14/14/14 16/16/16 15/15/15
f 16/16/16 14/14/14 13/13/13
f 14/14/14 12/12/12 13/13/13
f 11/11/11 14/14/14 15/15/15
f 24/24/24 17/17/17 23/23/23
f 24/24/24 22/22/22 18/18/18
f 21/21/21 24/24/24 23/23/23
f 24/24/24 21/21/21 22/22/22
f 21/21/21 20/20/20 22/22/22
f 19/19/19 21/21/21 23/23/23
f 32/32/32 25/25/25 31/31/31
f 32/32/32 29/29/29 26/26/26
f 30/30/30 32/32/32 31/31/31
f 32/32/32 30/30/30 29/29/29
f 30/30/30 28/28/28 29/29/29
f 27/27/27 30/30/30 31/31/31
f 39/39/39 33/33/33 38/38/38
f 39/39/39 40/40/40 34/34/34
f 37/37/37 39/39/39 38/38/38
f 39/39/39 37/37/37 40/40/40
f 37/37/37 36/36/36 40/40/40
f 35/35/35 37/37/37 38/38/38
f 48/48/48 41/41/41 45/45/45
f 48/48/48 47/47/47 42/42/42
f 46/46/46 48/48/48 45/45/45
f 48/48/48 46/46/46 47/47/47
f 46/46/46 44/44/44 47/47/47
f 43/43/43 46/46/46 45/45/45
f 54/54/54 49/49/49 50/50/50
f 52/52/52 54/54/54 50/50/50
f 54/54/54 52/52/52 53/53/53
f 50/50/50 51/51/51 52/52/52
f 60/60/60 55/55/55 56/56/56
f 58/58/58 60/60/60 56/56/56
f 60/60/60 58/58/58 59/59/59
f 56/56/56 57/57/57 58/58/58
f 66/66/66 61/61/61 62/62/62
f 64/64/64 66/66/66 62/62/62
f 66/66/66 64/64/64 65/65/65
f 62/62/62 63/63/63 64/64/64
f 68/68/68 69/69/69 70/70/70
f 72/72/72 68/68/68 70/70/70
f 68/68/68 72/72/72 67/67/67
f 70/70/70 71/71/71 72/72/72
f 78/78/78 76/76/76 77/77/77
f 74/74/74 78/78/78 77/77/77
f 78/78/78 74/74/74 75/75/75
f 77/77/77 73/73/73 74/74/74
f 84/84/84 82/82/82 83/83/83
f 80/80/80 84/84/84 83/83/83
f 84/84/84 80/80/80 81/81/81
f 83/83/83 79/79/79 80/80/80
f 90/90/90 88/88/88 89/89/89
f 86/86/86 90/90/90 89/89/89
f 90/90/90 86/86/86 87/87/87
f 89/89/89 85/85/85 86/86/86
f 94/94/94 95/95/95 96/96/96
f 92/92/92 94/94/94 96/96/96
f 94/94/94 92/92/92 93/93/93
f 96/96/96 91/91/91 92/92/92
